<mxfile host="app.diagrams.net" agent="Mozilla/5.0 (X11; Ubuntu; Linux x86_64; rv:136.0) Gecko/20100101 Firefox/136.0" version="26.1.1">
  <diagram name="Page-1" id="zbrnPMlyNwRr3SlvqQIs">
    <mxGraphModel dx="1434" dy="790" grid="1" gridSize="10" guides="1" tooltips="1" connect="1" arrows="1" fold="1" page="1" pageScale="1" pageWidth="850" pageHeight="1100" math="0" shadow="0">
      <root>
        <mxCell id="0" />
        <mxCell id="1" parent="0" />
        <mxCell id="iH6gDpU6CvyVbPrYl2I8-55" style="edgeStyle=orthogonalEdgeStyle;rounded=0;orthogonalLoop=1;jettySize=auto;html=1;exitX=0.5;exitY=1;exitDx=0;exitDy=0;entryX=0.5;entryY=0;entryDx=0;entryDy=0;endArrow=none;startFill=0;" edge="1" parent="1" source="iH6gDpU6CvyVbPrYl2I8-1" target="iH6gDpU6CvyVbPrYl2I8-54">
          <mxGeometry relative="1" as="geometry" />
        </mxCell>
        <mxCell id="iH6gDpU6CvyVbPrYl2I8-60" style="edgeStyle=orthogonalEdgeStyle;rounded=0;orthogonalLoop=1;jettySize=auto;html=1;exitX=0;exitY=0.5;exitDx=0;exitDy=0;entryX=1;entryY=0.5;entryDx=0;entryDy=0;" edge="1" parent="1" source="iH6gDpU6CvyVbPrYl2I8-1" target="iH6gDpU6CvyVbPrYl2I8-59">
          <mxGeometry relative="1" as="geometry" />
        </mxCell>
        <mxCell id="iH6gDpU6CvyVbPrYl2I8-72" style="edgeStyle=orthogonalEdgeStyle;rounded=0;orthogonalLoop=1;jettySize=auto;html=1;exitX=1;exitY=0.5;exitDx=0;exitDy=0;entryX=0;entryY=0.5;entryDx=0;entryDy=0;" edge="1" parent="1" source="iH6gDpU6CvyVbPrYl2I8-1" target="iH6gDpU6CvyVbPrYl2I8-70">
          <mxGeometry relative="1" as="geometry" />
        </mxCell>
        <mxCell id="iH6gDpU6CvyVbPrYl2I8-1" value="&lt;font style=&quot;font-size: 21px;&quot;&gt;&lt;b&gt;Cliente&lt;/b&gt;&lt;/font&gt;" style="rounded=0;whiteSpace=wrap;html=1;" vertex="1" parent="1">
          <mxGeometry x="1095" y="390" width="120" height="60" as="geometry" />
        </mxCell>
        <mxCell id="iH6gDpU6CvyVbPrYl2I8-2" value="&lt;font style=&quot;font-size: 21px;&quot;&gt;&lt;b&gt;&lt;font&gt;Dirección&lt;/font&gt;&lt;/b&gt;&lt;/font&gt;" style="rounded=0;whiteSpace=wrap;html=1;" vertex="1" parent="1">
          <mxGeometry x="611.25" y="480" width="120" height="60" as="geometry" />
        </mxCell>
        <mxCell id="iH6gDpU6CvyVbPrYl2I8-66" style="edgeStyle=orthogonalEdgeStyle;rounded=0;orthogonalLoop=1;jettySize=auto;html=1;exitX=0.5;exitY=1;exitDx=0;exitDy=0;entryX=0.5;entryY=0;entryDx=0;entryDy=0;" edge="1" parent="1" source="iH6gDpU6CvyVbPrYl2I8-3" target="iH6gDpU6CvyVbPrYl2I8-64">
          <mxGeometry relative="1" as="geometry" />
        </mxCell>
        <mxCell id="iH6gDpU6CvyVbPrYl2I8-3" value="&lt;b&gt;&lt;font style=&quot;font-size: 21px;&quot;&gt;Estado de la República Mexicana&lt;/font&gt;&lt;/b&gt;" style="rounded=0;whiteSpace=wrap;html=1;" vertex="1" parent="1">
          <mxGeometry x="1410" y="362.5" width="220" height="60" as="geometry" />
        </mxCell>
        <mxCell id="iH6gDpU6CvyVbPrYl2I8-5" value="&lt;b&gt;&lt;font style=&quot;font-size: 21px;&quot;&gt;Municipio de México&lt;/font&gt;&lt;/b&gt;" style="rounded=0;whiteSpace=wrap;html=1;" vertex="1" parent="1">
          <mxGeometry x="1460" y="507.5" width="120" height="60" as="geometry" />
        </mxCell>
        <mxCell id="iH6gDpU6CvyVbPrYl2I8-6" value="&lt;b&gt;&lt;font style=&quot;font-size: 22px;&quot;&gt;Servicio&lt;/font&gt;&lt;/b&gt;" style="rounded=0;whiteSpace=wrap;html=1;" vertex="1" parent="1">
          <mxGeometry x="1095" y="545" width="120" height="60" as="geometry" />
        </mxCell>
        <mxCell id="iH6gDpU6CvyVbPrYl2I8-78" style="edgeStyle=orthogonalEdgeStyle;rounded=0;orthogonalLoop=1;jettySize=auto;html=1;exitX=0.5;exitY=1;exitDx=0;exitDy=0;entryX=0.5;entryY=0;entryDx=0;entryDy=0;" edge="1" parent="1" source="iH6gDpU6CvyVbPrYl2I8-7" target="iH6gDpU6CvyVbPrYl2I8-76">
          <mxGeometry relative="1" as="geometry" />
        </mxCell>
        <mxCell id="iH6gDpU6CvyVbPrYl2I8-7" value="&lt;b&gt;&lt;font style=&quot;font-size: 22px;&quot;&gt;TV&lt;/font&gt;&lt;/b&gt;" style="rounded=0;whiteSpace=wrap;html=1;" vertex="1" parent="1">
          <mxGeometry x="1003.75" y="690" width="120" height="60" as="geometry" />
        </mxCell>
        <mxCell id="iH6gDpU6CvyVbPrYl2I8-8" value="&lt;b&gt;&lt;font style=&quot;font-size: 22px;&quot;&gt;Telefonía&lt;/font&gt;&lt;/b&gt;" style="rounded=0;whiteSpace=wrap;html=1;" vertex="1" parent="1">
          <mxGeometry x="1095" y="765" width="120" height="60" as="geometry" />
        </mxCell>
        <mxCell id="iH6gDpU6CvyVbPrYl2I8-9" value="&lt;b&gt;&lt;font style=&quot;font-size: 22px;&quot;&gt;Internet&lt;/font&gt;&lt;/b&gt;" style="rounded=0;whiteSpace=wrap;html=1;" vertex="1" parent="1">
          <mxGeometry x="1190" y="690" width="120" height="60" as="geometry" />
        </mxCell>
        <mxCell id="iH6gDpU6CvyVbPrYl2I8-10" value="" style="triangle;whiteSpace=wrap;html=1;rotation=90;" vertex="1" parent="1">
          <mxGeometry x="1126.25" y="625" width="60" height="80" as="geometry" />
        </mxCell>
        <mxCell id="iH6gDpU6CvyVbPrYl2I8-11" value="" style="endArrow=none;html=1;rounded=0;entryX=0.5;entryY=1;entryDx=0;entryDy=0;exitX=0;exitY=0.5;exitDx=0;exitDy=0;" edge="1" parent="1" source="iH6gDpU6CvyVbPrYl2I8-10" target="iH6gDpU6CvyVbPrYl2I8-6">
          <mxGeometry width="50" height="50" relative="1" as="geometry">
            <mxPoint x="1297.5" y="695" as="sourcePoint" />
            <mxPoint x="1347.5" y="645" as="targetPoint" />
          </mxGeometry>
        </mxCell>
        <mxCell id="iH6gDpU6CvyVbPrYl2I8-12" value="" style="endArrow=none;html=1;rounded=0;exitX=0.5;exitY=0;exitDx=0;exitDy=0;entryX=0.5;entryY=1;entryDx=0;entryDy=0;" edge="1" parent="1" source="iH6gDpU6CvyVbPrYl2I8-7" target="iH6gDpU6CvyVbPrYl2I8-10">
          <mxGeometry width="50" height="50" relative="1" as="geometry">
            <mxPoint x="1297.5" y="695" as="sourcePoint" />
            <mxPoint x="1347.5" y="645" as="targetPoint" />
          </mxGeometry>
        </mxCell>
        <mxCell id="iH6gDpU6CvyVbPrYl2I8-13" value="" style="endArrow=none;html=1;rounded=0;exitX=0.5;exitY=0;exitDx=0;exitDy=0;entryX=1;entryY=0.5;entryDx=0;entryDy=0;" edge="1" parent="1" source="iH6gDpU6CvyVbPrYl2I8-8" target="iH6gDpU6CvyVbPrYl2I8-10">
          <mxGeometry width="50" height="50" relative="1" as="geometry">
            <mxPoint x="1047.5" y="765" as="sourcePoint" />
            <mxPoint x="1147.5" y="695" as="targetPoint" />
          </mxGeometry>
        </mxCell>
        <mxCell id="iH6gDpU6CvyVbPrYl2I8-14" value="" style="endArrow=none;html=1;rounded=0;exitX=0.5;exitY=0;exitDx=0;exitDy=0;entryX=0.5;entryY=0;entryDx=0;entryDy=0;" edge="1" parent="1" source="iH6gDpU6CvyVbPrYl2I8-9" target="iH6gDpU6CvyVbPrYl2I8-10">
          <mxGeometry width="50" height="50" relative="1" as="geometry">
            <mxPoint x="1067.5" y="725" as="sourcePoint" />
            <mxPoint x="1147.5" y="695" as="targetPoint" />
          </mxGeometry>
        </mxCell>
        <mxCell id="iH6gDpU6CvyVbPrYl2I8-15" value="&lt;b&gt;&lt;font style=&quot;font-size: 21px;&quot;&gt;Pago&lt;/font&gt;&lt;/b&gt;" style="rounded=0;whiteSpace=wrap;html=1;" vertex="1" parent="1">
          <mxGeometry x="1257.5" y="472.5" width="120" height="60" as="geometry" />
        </mxCell>
        <mxCell id="iH6gDpU6CvyVbPrYl2I8-16" value="&lt;b&gt;&lt;font style=&quot;font-size: 19px;&quot;&gt;Tarjeta de Crédito&lt;/font&gt;&lt;/b&gt;" style="rounded=0;whiteSpace=wrap;html=1;" vertex="1" parent="1">
          <mxGeometry x="620" y="785" width="120" height="60" as="geometry" />
        </mxCell>
        <mxCell id="iH6gDpU6CvyVbPrYl2I8-18" value="&lt;font style=&quot;font-size: 18px;&quot;&gt;&lt;b&gt;Historial de Estados del Servicio&lt;font&gt;s&lt;/font&gt;&lt;/b&gt;&lt;/font&gt;" style="rounded=0;whiteSpace=wrap;html=1;" vertex="1" parent="1">
          <mxGeometry x="847.5" y="690" width="120" height="60" as="geometry" />
        </mxCell>
        <mxCell id="iH6gDpU6CvyVbPrYl2I8-20" style="edgeStyle=orthogonalEdgeStyle;rounded=0;orthogonalLoop=1;jettySize=auto;html=1;exitX=0.5;exitY=1;exitDx=0;exitDy=0;entryX=0.5;entryY=0;entryDx=0;entryDy=0;endArrow=none;startFill=0;" edge="1" parent="1" source="iH6gDpU6CvyVbPrYl2I8-19" target="iH6gDpU6CvyVbPrYl2I8-18">
          <mxGeometry relative="1" as="geometry" />
        </mxCell>
        <mxCell id="iH6gDpU6CvyVbPrYl2I8-21" style="edgeStyle=orthogonalEdgeStyle;rounded=0;orthogonalLoop=1;jettySize=auto;html=1;exitX=0.5;exitY=0;exitDx=0;exitDy=0;entryX=0;entryY=0.5;entryDx=0;entryDy=0;endArrow=none;startFill=0;" edge="1" parent="1" source="iH6gDpU6CvyVbPrYl2I8-19" target="iH6gDpU6CvyVbPrYl2I8-6">
          <mxGeometry relative="1" as="geometry">
            <Array as="points">
              <mxPoint x="907.5" y="575" />
              <mxPoint x="1097.5" y="575" />
            </Array>
          </mxGeometry>
        </mxCell>
        <mxCell id="iH6gDpU6CvyVbPrYl2I8-19" value="" style="rhombus;whiteSpace=wrap;html=1;" vertex="1" parent="1">
          <mxGeometry x="837.5" y="600" width="140" height="60" as="geometry" />
        </mxCell>
        <mxCell id="iH6gDpU6CvyVbPrYl2I8-22" value="&lt;font style=&quot;font-size: 13px;&quot;&gt;&lt;u&gt;RFC&lt;/u&gt;&lt;/font&gt;" style="ellipse;whiteSpace=wrap;html=1;" vertex="1" parent="1">
          <mxGeometry x="1055" y="330" width="50" height="30" as="geometry" />
        </mxCell>
        <mxCell id="iH6gDpU6CvyVbPrYl2I8-23" value="Nombre" style="ellipse;whiteSpace=wrap;html=1;" vertex="1" parent="1">
          <mxGeometry x="1126.25" y="340" width="57.5" height="30" as="geometry" />
        </mxCell>
        <mxCell id="iH6gDpU6CvyVbPrYl2I8-25" value="" style="endArrow=none;html=1;rounded=0;exitX=0.25;exitY=0;exitDx=0;exitDy=0;entryX=1;entryY=1;entryDx=0;entryDy=0;" edge="1" parent="1" source="iH6gDpU6CvyVbPrYl2I8-1" target="iH6gDpU6CvyVbPrYl2I8-22">
          <mxGeometry width="50" height="50" relative="1" as="geometry">
            <mxPoint x="1095" y="360" as="sourcePoint" />
            <mxPoint x="1145" y="310" as="targetPoint" />
          </mxGeometry>
        </mxCell>
        <mxCell id="iH6gDpU6CvyVbPrYl2I8-26" value="" style="endArrow=none;html=1;rounded=0;exitX=0.5;exitY=0;exitDx=0;exitDy=0;entryX=0.5;entryY=1;entryDx=0;entryDy=0;" edge="1" parent="1" source="iH6gDpU6CvyVbPrYl2I8-1" target="iH6gDpU6CvyVbPrYl2I8-23">
          <mxGeometry width="50" height="50" relative="1" as="geometry">
            <mxPoint x="1135" y="400" as="sourcePoint" />
            <mxPoint x="1098" y="346" as="targetPoint" />
          </mxGeometry>
        </mxCell>
        <mxCell id="iH6gDpU6CvyVbPrYl2I8-28" value="Apellido Paterno" style="ellipse;whiteSpace=wrap;html=1;" vertex="1" parent="1">
          <mxGeometry x="1020" y="290" width="120" height="20" as="geometry" />
        </mxCell>
        <mxCell id="iH6gDpU6CvyVbPrYl2I8-29" value="Apellido Materno" style="ellipse;whiteSpace=wrap;html=1;" vertex="1" parent="1">
          <mxGeometry x="1165" y="290" width="120" height="20" as="geometry" />
        </mxCell>
        <mxCell id="iH6gDpU6CvyVbPrYl2I8-31" value="" style="endArrow=none;html=1;rounded=0;exitX=0.5;exitY=1;exitDx=0;exitDy=0;entryX=0.5;entryY=0;entryDx=0;entryDy=0;" edge="1" parent="1" source="iH6gDpU6CvyVbPrYl2I8-28" target="iH6gDpU6CvyVbPrYl2I8-23">
          <mxGeometry width="50" height="50" relative="1" as="geometry">
            <mxPoint x="1395" y="430" as="sourcePoint" />
            <mxPoint x="1445" y="380" as="targetPoint" />
          </mxGeometry>
        </mxCell>
        <mxCell id="iH6gDpU6CvyVbPrYl2I8-32" value="" style="endArrow=none;html=1;rounded=0;exitX=0.5;exitY=1;exitDx=0;exitDy=0;entryX=0.5;entryY=0;entryDx=0;entryDy=0;dashed=1;" edge="1" parent="1" source="iH6gDpU6CvyVbPrYl2I8-29" target="iH6gDpU6CvyVbPrYl2I8-23">
          <mxGeometry width="50" height="50" relative="1" as="geometry">
            <mxPoint x="1090" y="310" as="sourcePoint" />
            <mxPoint x="1165" y="350" as="targetPoint" />
          </mxGeometry>
        </mxCell>
        <mxCell id="iH6gDpU6CvyVbPrYl2I8-33" value="CURP" style="ellipse;whiteSpace=wrap;html=1;dashed=1;dashPattern=8 8;" vertex="1" parent="1">
          <mxGeometry x="1210" y="330" width="50" height="30" as="geometry" />
        </mxCell>
        <mxCell id="iH6gDpU6CvyVbPrYl2I8-34" value="" style="endArrow=none;html=1;rounded=0;exitX=0.75;exitY=0;exitDx=0;exitDy=0;entryX=0;entryY=1;entryDx=0;entryDy=0;dashed=1;" edge="1" parent="1" source="iH6gDpU6CvyVbPrYl2I8-1" target="iH6gDpU6CvyVbPrYl2I8-33">
          <mxGeometry width="50" height="50" relative="1" as="geometry">
            <mxPoint x="1395" y="430" as="sourcePoint" />
            <mxPoint x="1445" y="380" as="targetPoint" />
          </mxGeometry>
        </mxCell>
        <mxCell id="iH6gDpU6CvyVbPrYl2I8-35" value="ID Cliente" style="ellipse;whiteSpace=wrap;html=1;" vertex="1" parent="1">
          <mxGeometry x="960" y="340" width="80" height="30" as="geometry" />
        </mxCell>
        <mxCell id="iH6gDpU6CvyVbPrYl2I8-36" value="" style="endArrow=none;html=1;rounded=0;exitX=0.25;exitY=0;exitDx=0;exitDy=0;entryX=1;entryY=1;entryDx=0;entryDy=0;" edge="1" parent="1" source="iH6gDpU6CvyVbPrYl2I8-1" target="iH6gDpU6CvyVbPrYl2I8-35">
          <mxGeometry width="50" height="50" relative="1" as="geometry">
            <mxPoint x="1135" y="400" as="sourcePoint" />
            <mxPoint x="1108" y="366" as="targetPoint" />
          </mxGeometry>
        </mxCell>
        <mxCell id="iH6gDpU6CvyVbPrYl2I8-37" value="&lt;u&gt;ID Dirección&lt;/u&gt;" style="ellipse;whiteSpace=wrap;html=1;" vertex="1" parent="1">
          <mxGeometry x="730" y="440" width="80" height="30" as="geometry" />
        </mxCell>
        <mxCell id="iH6gDpU6CvyVbPrYl2I8-40" value="" style="endArrow=none;html=1;rounded=0;exitX=0.5;exitY=1;exitDx=0;exitDy=0;entryX=0.5;entryY=0;entryDx=0;entryDy=0;" edge="1" parent="1" source="iH6gDpU6CvyVbPrYl2I8-37" target="iH6gDpU6CvyVbPrYl2I8-2">
          <mxGeometry width="50" height="50" relative="1" as="geometry">
            <mxPoint x="866.25" y="380" as="sourcePoint" />
            <mxPoint x="916.25" y="330" as="targetPoint" />
          </mxGeometry>
        </mxCell>
        <mxCell id="iH6gDpU6CvyVbPrYl2I8-42" value="" style="triangle;whiteSpace=wrap;html=1;rotation=90;" vertex="1" parent="1">
          <mxGeometry x="641.25" y="590" width="60" height="80" as="geometry" />
        </mxCell>
        <mxCell id="iH6gDpU6CvyVbPrYl2I8-43" value="&lt;b&gt;&lt;font style=&quot;font-size: 22px;&quot;&gt;Domicilio&lt;/font&gt;&lt;/b&gt;" style="rounded=0;whiteSpace=wrap;html=1;" vertex="1" parent="1">
          <mxGeometry x="521.25" y="690" width="120" height="60" as="geometry" />
        </mxCell>
        <mxCell id="iH6gDpU6CvyVbPrYl2I8-44" value="&lt;b&gt;&lt;font style=&quot;font-size: 22px;&quot;&gt;Fiscal&lt;/font&gt;&lt;/b&gt;" style="rounded=0;whiteSpace=wrap;html=1;" vertex="1" parent="1">
          <mxGeometry x="690" y="690" width="120" height="60" as="geometry" />
        </mxCell>
        <mxCell id="iH6gDpU6CvyVbPrYl2I8-46" value="" style="endArrow=none;html=1;rounded=0;exitX=0.5;exitY=0;exitDx=0;exitDy=0;entryX=0.5;entryY=1;entryDx=0;entryDy=0;" edge="1" parent="1" source="iH6gDpU6CvyVbPrYl2I8-43" target="iH6gDpU6CvyVbPrYl2I8-42">
          <mxGeometry width="50" height="50" relative="1" as="geometry">
            <mxPoint x="865" y="680" as="sourcePoint" />
            <mxPoint x="915" y="630" as="targetPoint" />
          </mxGeometry>
        </mxCell>
        <mxCell id="iH6gDpU6CvyVbPrYl2I8-47" value="" style="endArrow=none;html=1;rounded=0;exitX=0.5;exitY=0;exitDx=0;exitDy=0;entryX=0.5;entryY=0;entryDx=0;entryDy=0;" edge="1" parent="1" source="iH6gDpU6CvyVbPrYl2I8-44" target="iH6gDpU6CvyVbPrYl2I8-42">
          <mxGeometry width="50" height="50" relative="1" as="geometry">
            <mxPoint x="591" y="690" as="sourcePoint" />
            <mxPoint x="660" y="640" as="targetPoint" />
          </mxGeometry>
        </mxCell>
        <mxCell id="iH6gDpU6CvyVbPrYl2I8-48" value="" style="curved=1;endArrow=none;html=1;rounded=0;startFill=0;" edge="1" parent="1">
          <mxGeometry width="50" height="50" relative="1" as="geometry">
            <mxPoint x="751.25" y="620" as="sourcePoint" />
            <mxPoint x="601.25" y="620" as="targetPoint" />
            <Array as="points">
              <mxPoint x="701.25" y="680" />
              <mxPoint x="651.25" y="680" />
              <mxPoint x="611.25" y="640" />
            </Array>
          </mxGeometry>
        </mxCell>
        <mxCell id="iH6gDpU6CvyVbPrYl2I8-49" value="&lt;font style=&quot;font-size: 14px;&quot;&gt;Tipo&lt;/font&gt;" style="ellipse;whiteSpace=wrap;html=1;aspect=fixed;" vertex="1" parent="1">
          <mxGeometry x="736.25" y="550" width="40" height="40" as="geometry" />
        </mxCell>
        <mxCell id="iH6gDpU6CvyVbPrYl2I8-50" value="" style="endArrow=none;html=1;rounded=0;exitX=0;exitY=0.5;exitDx=0;exitDy=0;" edge="1" parent="1" source="iH6gDpU6CvyVbPrYl2I8-42">
          <mxGeometry width="50" height="50" relative="1" as="geometry">
            <mxPoint x="921.25" y="660" as="sourcePoint" />
            <mxPoint x="671.25" y="570" as="targetPoint" />
          </mxGeometry>
        </mxCell>
        <mxCell id="iH6gDpU6CvyVbPrYl2I8-51" value="" style="endArrow=none;html=1;rounded=0;exitX=0;exitY=0.5;exitDx=0;exitDy=0;" edge="1" parent="1" source="iH6gDpU6CvyVbPrYl2I8-49">
          <mxGeometry width="50" height="50" relative="1" as="geometry">
            <mxPoint x="680.25" y="610" as="sourcePoint" />
            <mxPoint x="671.25" y="570" as="targetPoint" />
          </mxGeometry>
        </mxCell>
        <mxCell id="iH6gDpU6CvyVbPrYl2I8-52" value="" style="endArrow=none;html=1;rounded=0;entryX=0.5;entryY=1;entryDx=0;entryDy=0;" edge="1" parent="1" target="iH6gDpU6CvyVbPrYl2I8-2">
          <mxGeometry width="50" height="50" relative="1" as="geometry">
            <mxPoint x="671.25" y="580" as="sourcePoint" />
            <mxPoint x="691.25" y="590" as="targetPoint" />
          </mxGeometry>
        </mxCell>
        <mxCell id="iH6gDpU6CvyVbPrYl2I8-53" value="ID Cliente" style="ellipse;whiteSpace=wrap;html=1;" vertex="1" parent="1">
          <mxGeometry x="1371.25" y="780" width="80" height="30" as="geometry" />
        </mxCell>
        <mxCell id="iH6gDpU6CvyVbPrYl2I8-56" style="edgeStyle=orthogonalEdgeStyle;rounded=0;orthogonalLoop=1;jettySize=auto;html=1;exitX=0.5;exitY=1;exitDx=0;exitDy=0;entryX=0.5;entryY=0;entryDx=0;entryDy=0;" edge="1" parent="1" source="iH6gDpU6CvyVbPrYl2I8-54" target="iH6gDpU6CvyVbPrYl2I8-6">
          <mxGeometry relative="1" as="geometry" />
        </mxCell>
        <mxCell id="iH6gDpU6CvyVbPrYl2I8-54" value="puede tener" style="rhombus;whiteSpace=wrap;html=1;" vertex="1" parent="1">
          <mxGeometry x="1097.5" y="480" width="117.5" height="30" as="geometry" />
        </mxCell>
        <mxCell id="iH6gDpU6CvyVbPrYl2I8-57" value="(1, 1)" style="text;html=1;align=center;verticalAlign=middle;whiteSpace=wrap;rounded=0;" vertex="1" parent="1">
          <mxGeometry x="1155" y="450" width="60" height="30" as="geometry" />
        </mxCell>
        <mxCell id="iH6gDpU6CvyVbPrYl2I8-58" value="(1, *)" style="text;html=1;align=center;verticalAlign=middle;whiteSpace=wrap;rounded=0;" vertex="1" parent="1">
          <mxGeometry x="1157.5" y="515" width="60" height="30" as="geometry" />
        </mxCell>
        <mxCell id="iH6gDpU6CvyVbPrYl2I8-61" style="edgeStyle=orthogonalEdgeStyle;rounded=0;orthogonalLoop=1;jettySize=auto;html=1;exitX=0;exitY=0.5;exitDx=0;exitDy=0;entryX=0.5;entryY=0;entryDx=0;entryDy=0;" edge="1" parent="1" source="iH6gDpU6CvyVbPrYl2I8-59" target="iH6gDpU6CvyVbPrYl2I8-2">
          <mxGeometry relative="1" as="geometry" />
        </mxCell>
        <mxCell id="iH6gDpU6CvyVbPrYl2I8-59" value="puede tener" style="rhombus;whiteSpace=wrap;html=1;" vertex="1" parent="1">
          <mxGeometry x="810" y="405" width="117.5" height="30" as="geometry" />
        </mxCell>
        <mxCell id="iH6gDpU6CvyVbPrYl2I8-62" value="(1, 2)" style="text;html=1;align=center;verticalAlign=middle;whiteSpace=wrap;rounded=0;" vertex="1" parent="1">
          <mxGeometry x="671.25" y="420" width="60" height="30" as="geometry" />
        </mxCell>
        <mxCell id="iH6gDpU6CvyVbPrYl2I8-63" value="(1, 1)" style="text;html=1;align=center;verticalAlign=middle;whiteSpace=wrap;rounded=0;" vertex="1" parent="1">
          <mxGeometry x="1033.75" y="420" width="60" height="30" as="geometry" />
        </mxCell>
        <mxCell id="iH6gDpU6CvyVbPrYl2I8-65" style="edgeStyle=orthogonalEdgeStyle;rounded=0;orthogonalLoop=1;jettySize=auto;html=1;exitX=0.5;exitY=1;exitDx=0;exitDy=0;" edge="1" parent="1" source="iH6gDpU6CvyVbPrYl2I8-64" target="iH6gDpU6CvyVbPrYl2I8-5">
          <mxGeometry relative="1" as="geometry" />
        </mxCell>
        <mxCell id="iH6gDpU6CvyVbPrYl2I8-64" value="tiene" style="rhombus;whiteSpace=wrap;html=1;" vertex="1" parent="1">
          <mxGeometry x="1461.25" y="447.5" width="117.5" height="30" as="geometry" />
        </mxCell>
        <mxCell id="iH6gDpU6CvyVbPrYl2I8-67" value="(1, *)" style="text;html=1;align=center;verticalAlign=middle;whiteSpace=wrap;rounded=0;" vertex="1" parent="1">
          <mxGeometry x="1521.25" y="472.5" width="60" height="30" as="geometry" />
        </mxCell>
        <mxCell id="iH6gDpU6CvyVbPrYl2I8-68" value="(1, 1)" style="text;html=1;align=center;verticalAlign=middle;whiteSpace=wrap;rounded=0;" vertex="1" parent="1">
          <mxGeometry x="1521.25" y="422.5" width="60" height="30" as="geometry" />
        </mxCell>
        <mxCell id="iH6gDpU6CvyVbPrYl2I8-71" style="edgeStyle=orthogonalEdgeStyle;rounded=0;orthogonalLoop=1;jettySize=auto;html=1;exitX=0.5;exitY=1;exitDx=0;exitDy=0;entryX=0.5;entryY=0;entryDx=0;entryDy=0;" edge="1" parent="1" source="iH6gDpU6CvyVbPrYl2I8-70" target="iH6gDpU6CvyVbPrYl2I8-15">
          <mxGeometry relative="1" as="geometry" />
        </mxCell>
        <mxCell id="iH6gDpU6CvyVbPrYl2I8-70" value="pertenece a" style="rhombus;whiteSpace=wrap;html=1;" vertex="1" parent="1">
          <mxGeometry x="1260" y="405" width="117.5" height="30" as="geometry" />
        </mxCell>
        <mxCell id="iH6gDpU6CvyVbPrYl2I8-73" value="(1, 1)" style="text;html=1;align=center;verticalAlign=middle;whiteSpace=wrap;rounded=0;" vertex="1" parent="1">
          <mxGeometry x="1150" y="605" width="60" height="30" as="geometry" />
        </mxCell>
        <mxCell id="iH6gDpU6CvyVbPrYl2I8-75" value="&lt;b&gt;&lt;font style=&quot;font-size: 22px;&quot;&gt;Canal&lt;/font&gt;&lt;/b&gt;" style="rounded=0;whiteSpace=wrap;html=1;" vertex="1" parent="1">
          <mxGeometry x="938.75" y="870" width="120" height="60" as="geometry" />
        </mxCell>
        <mxCell id="iH6gDpU6CvyVbPrYl2I8-77" style="edgeStyle=orthogonalEdgeStyle;rounded=0;orthogonalLoop=1;jettySize=auto;html=1;exitX=0.5;exitY=1;exitDx=0;exitDy=0;" edge="1" parent="1" source="iH6gDpU6CvyVbPrYl2I8-76" target="iH6gDpU6CvyVbPrYl2I8-75">
          <mxGeometry relative="1" as="geometry" />
        </mxCell>
        <mxCell id="iH6gDpU6CvyVbPrYl2I8-76" value="se compone de" style="rhombus;whiteSpace=wrap;html=1;" vertex="1" parent="1">
          <mxGeometry x="940" y="795" width="117.5" height="45" as="geometry" />
        </mxCell>
      </root>
    </mxGraphModel>
  </diagram>
</mxfile>
